<?xml version="1.0" standalone="no"?>
<!DOCTYPE svg PUBLIC "-//W3C//DTD SVG 20010904//EN"
 "http://www.w3.org/TR/2001/REC-SVG-20010904/DTD/svg10.dtd">
<svg version="1.0" xmlns="http://www.w3.org/2000/svg"
 width="1719.000000pt" height="1719.000000pt" viewBox="0 0 1719.000000 1719.000000"
 preserveAspectRatio="xMidYMid meet">
<metadata>
Created by potrace 1.11, written by Peter Selinger 2001-2013
</metadata>
<g transform="translate(0.000000,1719.000000) scale(0.100000,-0.100000)"
fill="#000000" stroke="none">
<path d="M8269 17126 c-2 -2 -67 -7 -144 -10 -77 -4 -160 -9 -185 -11 -25 -2
-76 -7 -115 -10 -38 -3 -83 -7 -100 -9 -16 -2 -59 -7 -95 -10 -36 -4 -76 -8
-90 -10 -14 -3 -47 -7 -75 -11 -124 -15 -273 -39 -445 -72 -74 -14 -146 -27
-160 -29 -14 -3 -32 -7 -40 -9 -8 -2 -30 -7 -49 -10 -19 -3 -38 -8 -41 -10 -4
-3 -23 -7 -41 -10 -19 -3 -104 -24 -189 -45 -85 -22 -165 -42 -177 -45 -12 -3
-34 -10 -48 -15 -14 -5 -25 -6 -25 -3 0 4 -5 2 -12 -5 -7 -7 -19 -12 -28 -12
-16 0 -229 -66 -395 -122 -233 -79 -597 -225 -830 -333 -190 -88 -545 -272
-660 -342 -11 -7 -27 -15 -35 -19 -78 -38 -622 -388 -628 -405 -2 -5 -8 -9
-13 -9 -5 0 -32 -17 -59 -37 -26 -21 -88 -67 -137 -103 -88 -65 -316 -245
-363 -286 -14 -12 -59 -51 -100 -86 -41 -35 -82 -70 -91 -78 -9 -8 -63 -58
-120 -110 -225 -207 -511 -503 -694 -720 -44 -52 -83 -97 -86 -100 -3 -3 -36
-43 -73 -90 -38 -47 -76 -94 -85 -105 -9 -11 -53 -70 -98 -130 -46 -61 -87
-115 -93 -122 -5 -7 -10 -16 -10 -22 0 -5 -3 -11 -8 -13 -11 -4 -132 -177
-132 -187 0 -5 -3 -11 -7 -13 -11 -5 -73 -97 -73 -108 0 -6 -4 -10 -10 -10 -5
0 -10 -4 -10 -10 0 -5 -24 -45 -53 -89 -28 -44 -59 -92 -68 -108 -10 -15 -36
-59 -59 -98 -23 -38 -56 -95 -73 -125 -16 -30 -38 -69 -47 -85 -264 -471 -498
-1013 -663 -1535 -72 -229 -137 -452 -152 -529 -2 -9 -12 -52 -23 -96 -24 -93
-98 -449 -107 -515 -3 -25 -9 -61 -11 -80 -3 -19 -7 -42 -9 -50 -6 -21 -32
-206 -45 -315 -13 -103 -15 -126 -25 -250 -4 -49 -8 -101 -11 -114 -25 -165
-25 -1081 1 -1291 1 -14 6 -63 9 -110 4 -47 9 -103 12 -125 9 -81 14 -131 19
-165 2 -19 7 -57 10 -85 20 -174 93 -573 142 -775 13 -58 26 -113 28 -122 4
-21 62 -240 75 -283 5 -16 16 -57 26 -90 9 -33 19 -67 22 -75 3 -8 6 -19 7
-25 10 -44 171 -508 195 -562 11 -25 17 -41 50 -123 11 -30 25 -64 30 -75 5
-11 29 -67 54 -125 78 -183 246 -532 316 -655 12 -22 36 -65 52 -95 35 -64
221 -378 255 -430 13 -19 28 -42 33 -50 33 -51 198 -296 212 -315 4 -5 26 -33
48 -62 22 -29 40 -57 40 -62 0 -5 3 -11 8 -13 4 -1 36 -41 71 -88 35 -46 68
-89 72 -95 5 -5 24 -28 41 -51 78 -98 95 -118 125 -153 18 -20 58 -67 90 -106
32 -38 72 -83 88 -101 17 -18 64 -70 105 -115 180 -200 580 -584 760 -729 24
-19 48 -39 54 -45 6 -5 34 -28 61 -49 28 -22 58 -47 67 -55 32 -30 47 -41 55
-41 5 0 14 -9 21 -20 7 -11 19 -20 26 -20 8 0 16 -4 18 -8 2 -5 53 -45 113
-90 61 -45 131 -97 157 -117 25 -19 51 -35 56 -35 5 0 12 -7 16 -15 3 -8 12
-15 19 -15 8 0 22 -9 32 -20 10 -11 22 -20 27 -20 5 0 32 -17 61 -37 29 -21
62 -44 72 -50 11 -7 68 -43 127 -80 59 -38 120 -75 135 -83 15 -9 46 -27 68
-41 22 -14 65 -39 95 -56 30 -16 97 -53 148 -82 104 -58 367 -191 487 -246 44
-20 103 -47 130 -60 343 -158 919 -361 1305 -459 74 -19 142 -37 150 -40 8 -3
26 -8 40 -11 14 -2 45 -9 70 -15 25 -5 54 -11 65 -14 59 -12 183 -38 205 -42
14 -3 32 -7 40 -9 8 -2 31 -7 50 -10 19 -3 85 -14 145 -24 154 -26 243 -40
295 -46 25 -3 65 -8 90 -11 25 -3 56 -7 70 -9 23 -4 85 -10 200 -20 25 -2 72
-6 105 -9 305 -28 1080 -28 1324 -1 20 2 74 7 121 10 47 4 99 9 115 11 17 2
53 6 80 9 28 3 86 10 130 16 105 14 111 15 175 23 30 4 62 9 70 11 8 2 29 6
45 9 139 23 234 40 315 57 52 12 109 23 125 26 17 2 57 11 90 20 33 8 68 17
78 19 10 2 27 6 37 9 10 3 27 7 37 9 41 9 191 48 234 62 25 8 54 16 65 18 156
32 790 259 1048 375 25 12 67 31 94 42 26 12 67 30 92 41 129 58 487 241 603
310 26 15 50 28 52 28 3 0 29 16 59 35 30 19 57 35 60 35 7 0 269 165 401 253
198 133 504 358 612 452 7 5 18 15 25 20 24 18 123 100 134 110 6 5 35 30 64
55 29 25 74 64 99 87 115 105 136 123 143 123 5 0 8 7 8 15 0 8 4 15 10 15 10
0 309 297 431 428 42 45 75 82 73 82 -1 0 15 17 35 39 20 21 50 55 66 75 17
20 41 49 55 65 14 15 43 49 65 77 22 27 47 58 57 69 16 20 81 101 96 120 4 6
32 42 62 81 30 39 62 81 70 94 8 12 20 28 25 34 6 6 26 33 45 61 33 46 91 127
108 150 4 6 51 78 104 160 54 83 101 155 106 160 4 6 21 33 37 60 16 28 34 58
40 67 5 9 44 77 86 150 181 317 313 581 436 873 30 72 61 142 69 157 8 15 14
29 14 30 -1 2 3 14 8 28 142 367 277 783 337 1040 2 8 13 53 25 100 20 80 23
95 34 145 20 93 36 169 41 192 2 16 9 53 15 83 23 116 28 142 36 200 3 25 8
47 9 50 2 3 6 33 10 65 3 33 8 67 10 75 3 8 7 40 11 70 3 30 7 66 9 80 2 14 6
54 10 90 4 36 8 72 10 80 3 8 7 58 10 110 4 52 8 106 10 120 19 114 27 851 12
1105 -12 213 -22 335 -32 410 -2 17 -7 55 -10 85 -10 104 -26 225 -40 310 -8
47 -16 99 -18 115 -5 28 -30 171 -43 240 -76 413 -248 1014 -398 1397 -25 65
-46 119 -46 122 0 6 -144 342 -185 431 -85 184 -269 543 -306 597 -11 14 -19
29 -19 32 0 10 -144 251 -152 254 -4 2 -8 8 -8 12 0 12 -142 234 -152 238 -5
2 -8 8 -8 12 0 22 -408 584 -450 620 -3 3 -21 25 -40 50 -19 24 -42 52 -50 60
-8 9 -31 36 -52 61 -205 250 -618 672 -848 869 -34 29 -139 122 -155 138 -8 6
-16 12 -19 12 -3 0 -19 12 -35 28 -16 15 -36 32 -43 37 -7 6 -51 41 -98 79
-47 37 -92 73 -100 79 -14 11 -233 173 -275 203 -57 42 -207 144 -255 174 -30
19 -56 38 -58 42 -2 5 -8 8 -14 8 -5 0 -28 13 -51 28 -23 16 -100 64 -172 107
-135 81 -167 100 -250 145 -27 15 -68 37 -90 50 -47 27 -453 230 -459 230 -2
0 -47 20 -100 45 -53 25 -99 45 -101 45 -2 0 -28 11 -57 24 -98 44 -289 119
-453 178 -150 54 -497 166 -570 184 -5 1 -104 27 -220 57 -115 30 -214 55
-220 56 -5 1 -19 4 -30 6 -11 3 -31 7 -45 9 -14 2 -68 13 -120 24 -96 20 -291
56 -365 67 -22 3 -52 8 -66 10 -14 3 -43 7 -64 10 -22 2 -75 9 -120 15 -106
14 -137 18 -220 26 -112 11 -125 12 -220 19 -49 4 -110 9 -135 11 -62 6 -836
15 -841 10z"/>
</g>
</svg>
